<?xml version="1.0" encoding="utf-8"?>
<!-- Generator: Adobe Illustrator 24.1.1, SVG Export Plug-In . SVG Version: 6.00 Build 0)  -->
<svg version="1.1" id="Layer_1" xmlns="http://www.w3.org/2000/svg" xmlns:xlink="http://www.w3.org/1999/xlink" x="0px" y="0px"
	 viewBox="0 0 512 512" style="enable-background:new 0 0 512 512;" xml:space="preserve">
<style type="text/css">
	.st0{fill:#346DA6;}
	.st1{fill:#FFFFFF;}
</style>
<g id="XMLID_1_">
	<path id="XMLID_3_" class="st0" d="M25.2,0h461.6c14,0,25.2,11.2,25.2,25.2v461.6c0,14-11.2,25.2-25.2,25.2H25.2
		C11.2,512,0,500.8,0,486.8V25.2C0,11.2,11.2,0,25.2,0z"/>
	<path id="XMLID_7_" class="st1" d="M381.4,187.5c0,30.8-14,56.9-41,75.5c-26.1,18.7-63.4,28-109.1,28H221c-3.7,0-7.5,2.8-8.4,6.5
		l-12.1,52.2c-2.8,11.2-14,20.5-26.1,20.5h-34.5v0.9c-1.9,7.5,2.8,13.1,11.2,13.1h36.4c7.5,0,15.9-5.6,17.7-13.1l12.1-52.2
		c1.9-7.5,9.3-13.1,17.7-13.1h10.3c44.8,0,79.3-8.4,103.5-26.1c25.2-17.7,37.3-41,37.3-69.9C385.2,201.4,383.3,194,381.4,187.5z
		 M280.7,225.7c-10.3,7.5-25.2,11.2-43.8,11.2h-8.4c-7.5,0-12.1-5.6-10.3-13.1l10.3-43.8c1.9-7.5,9.3-13.1,16.8-13.1h11.2
		c13.1,0,23.3,1.9,29.8,6.5c6.5,4.7,10.3,11.2,10.3,19.6C296.6,208,291,218.2,280.7,225.7z M367.4,153.9
		c-4.7-8.4-11.2-15.9-19.6-21.4c-9.3-5.6-19.6-9.3-31.7-11.2c-12.1-1.9-26.1-2.8-42.9-3.7h-76.5c-7.5,0-15.9,6.5-17.7,14
		l-51.3,219.2c-1.9,7.5,2.8,14,11.2,14h36.4c7.5,0,15.9-5.6,17.7-14l12.1-53.2c1.9-7.5,9.3-14,17.7-14h10.3
		c44.8,0,79.3-9.3,103.5-27c25.2-17.7,37.3-42,37.3-70.9C374.9,173.5,373,163.2,367.4,153.9"/>
</g>
</svg>
